<?xml version="1.0" standalone="no"?>
<!DOCTYPE svg PUBLIC "-//W3C//DTD SVG 20010904//EN"
 "http://www.w3.org/TR/2001/REC-SVG-20010904/DTD/svg10.dtd">
<svg version="1.0" xmlns="http://www.w3.org/2000/svg"
 width="1000.000000pt" height="400.000000pt" viewBox="0 0 1000.000000 400.000000"
 preserveAspectRatio="xMidYMid meet">
<g transform="translate(0.000000,400.000000) scale(0.100000,-0.100000)"
fill="#ffffff" stroke="none">
<path d="M1430 3293 c-361 -3 -440 -6 -467 -18 -17 -8 -36 -15 -42 -15 -6 0
-11 -4 -11 -10 0 -5 -5 -10 -11 -10 -18 0 -128 -118 -135 -145 -3 -14 -10 -25
-14 -25 -5 0 -12 -10 -16 -22 -4 -13 -15 -30 -25 -39 -10 -8 -21 -27 -24 -42
-4 -15 -11 -25 -15 -22 -4 3 -11 -6 -14 -20 -4 -14 -11 -25 -16 -25 -6 0 -10
-6 -10 -14 0 -8 -6 -21 -13 -28 -6 -7 -23 -35 -37 -61 -14 -26 -35 -59 -47
-74 -13 -14 -23 -32 -23 -40 0 -7 -4 -13 -10 -13 -5 0 -12 -11 -16 -25 -3 -14
-10 -25 -15 -25 -5 0 -9 -6 -9 -14 0 -8 -6 -21 -13 -28 -15 -18 -32 -44 -53
-86 -10 -19 -23 -36 -30 -39 -7 -2 -16 -18 -19 -34 -4 -16 -11 -29 -16 -29 -5
0 -11 -11 -15 -25 -3 -14 -10 -25 -14 -25 -4 0 -11 -11 -14 -25 -4 -14 -11
-25 -16 -25 -6 0 -10 -5 -10 -10 0 -6 -14 -29 -30 -52 -17 -22 -30 -49 -30
-60 0 -10 -4 -18 -9 -18 -5 0 -14 -30 -21 -66 -10 -54 -10 -80 0 -135 7 -38
17 -66 21 -64 4 3 10 -8 14 -25 4 -16 10 -30 15 -30 4 0 16 -17 25 -37 10 -21
23 -43 29 -50 29 -33 36 -43 42 -67 3 -14 10 -26 14 -26 4 0 11 -12 14 -26 4
-14 16 -35 27 -47 12 -12 25 -31 30 -42 5 -11 18 -33 29 -50 11 -16 23 -38 26
-47 4 -10 10 -18 14 -18 5 0 11 -13 15 -29 3 -16 13 -32 21 -35 8 -3 14 -15
14 -26 0 -11 5 -20 10 -20 6 0 10 -7 10 -15 0 -8 5 -15 10 -15 6 0 10 -6 10
-14 0 -8 6 -21 14 -28 7 -8 17 -25 21 -38 4 -13 14 -30 21 -38 8 -7 14 -22 14
-33 0 -10 4 -19 10 -19 5 0 12 -11 16 -25 3 -14 10 -25 15 -25 5 0 9 -6 9 -13
0 -8 11 -27 25 -43 14 -16 25 -35 25 -42 0 -7 7 -15 15 -18 8 -4 15 -12 15
-19 0 -15 45 -65 60 -65 5 0 10 -4 10 -9 0 -5 12 -12 28 -16 15 -3 35 -14 46
-23 17 -16 72 -17 660 -14 620 3 706 5 706 22 0 4 11 11 25 14 14 4 25 11 25
16 0 6 5 10 11 10 13 0 69 55 69 67 0 5 9 16 20 26 11 9 20 24 20 32 0 8 3 15
8 15 4 0 16 17 27 37 11 21 24 43 30 50 5 7 16 19 23 27 6 8 12 20 12 25 0 5
6 16 12 23 7 7 24 36 38 63 14 28 28 52 31 55 3 3 14 20 24 38 11 17 23 32 27
32 4 0 8 6 8 13 0 8 9 24 20 37 11 13 20 29 20 37 0 7 4 13 9 13 5 0 12 11 15
25 4 14 11 25 16 25 6 0 10 6 10 13 0 8 9 24 20 37 11 13 20 29 20 37 0 7 5
13 10 13 6 0 10 7 10 15 0 8 4 15 9 15 5 0 13 10 17 22 3 12 13 28 20 36 8 7
14 20 14 28 0 8 4 14 9 14 5 0 11 8 15 18 3 9 15 31 26 47 11 17 26 42 32 58
7 15 16 27 20 27 4 0 8 9 8 20 0 11 4 20 9 20 5 0 12 14 16 30 4 17 11 30 16
30 5 0 9 36 9 80 0 44 -4 80 -9 80 -5 0 -13 15 -16 33 -4 17 -11 34 -14 37 -4
3 -18 25 -30 50 -37 72 -47 90 -70 116 -11 13 -21 31 -21 38 0 8 -6 21 -14 28
-7 8 -17 24 -20 36 -4 12 -12 22 -17 22 -5 0 -9 7 -9 15 0 8 -4 15 -10 15 -5
0 -12 11 -16 25 -3 14 -10 25 -14 25 -4 0 -13 12 -19 28 -11 28 -32 64 -42 72
-4 3 -9 15 -13 28 -4 12 -11 22 -16 22 -5 0 -11 14 -15 30 -4 17 -11 30 -16
30 -5 0 -9 6 -9 14 0 8 -3 16 -7 18 -5 2 -19 26 -33 53 -14 28 -31 54 -37 58
-7 4 -13 17 -13 27 0 11 -4 20 -9 20 -5 0 -12 14 -16 30 -4 17 -11 30 -16 30
-5 0 -9 6 -9 14 0 7 -13 29 -30 47 -16 19 -30 38 -30 42 0 5 -13 22 -30 39
-16 16 -30 34 -30 39 0 5 -6 9 -14 9 -8 0 -21 6 -28 14 -8 7 -25 17 -38 21
-14 4 -28 12 -32 18 -7 11 -210 14 -858 10z m728 -451 c29 -29 52 -59 52 -67
0 -7 3 -15 8 -17 9 -4 42 -66 42 -79 0 -5 -199 -9 -490 -9 -292 0 -490 -4
-490 -9 0 -5 -13 -12 -30 -16 -18 -4 -32 -15 -36 -28 -4 -12 -15 -29 -25 -38
-10 -8 -21 -27 -24 -42 -4 -15 -11 -27 -15 -27 -5 0 -12 -10 -16 -22 -4 -13
-10 -25 -13 -28 -4 -3 -29 -41 -56 -85 -27 -44 -52 -82 -56 -85 -3 -3 -9 -15
-13 -27 -4 -13 -11 -23 -16 -23 -4 0 -11 -11 -14 -25 -4 -14 -11 -25 -16 -25
-6 0 -10 -6 -10 -14 0 -8 -6 -21 -14 -28 -7 -8 -17 -24 -20 -36 -4 -12 -12
-22 -17 -22 -12 0 -12 -107 0 -115 5 -3 12 -19 16 -35 4 -17 11 -30 16 -30 5
0 11 -11 15 -24 3 -14 12 -27 20 -30 8 -3 14 -12 14 -21 0 -12 -14 -15 -72
-14 -154 1 -182 11 -228 79 -8 12 -22 29 -30 38 -11 11 -15 39 -15 101 0 84 1
88 44 156 24 39 47 72 51 75 4 3 10 15 14 28 4 12 12 22 17 22 5 0 9 6 9 14 0
8 6 21 14 28 7 8 17 24 20 36 4 12 12 22 17 22 5 0 9 6 9 14 0 8 6 21 13 28
18 20 37 50 43 71 4 9 10 17 14 17 4 0 11 11 14 25 4 14 11 25 16 25 6 0 10 6
10 13 0 8 9 24 20 37 11 13 20 29 20 37 0 7 4 13 9 13 5 0 12 11 15 25 4 14
11 25 16 25 6 0 10 6 10 14 0 8 11 23 25 34 14 11 25 25 25 31 0 6 7 11 15 11
8 0 15 4 15 10 0 14 61 39 105 42 22 2 234 3 470 3 l431 0 52 -53z m247 -582
c3 -5 24 -10 46 -10 21 0 39 -3 39 -7 0 -5 18 -27 40 -49 21 -23 42 -53 46
-68 3 -14 10 -26 15 -26 5 0 9 -25 9 -55 0 -30 -4 -55 -9 -55 -5 0 -12 -16
-15 -35 -4 -19 -10 -35 -14 -35 -4 0 -18 -20 -32 -45 -14 -25 -28 -45 -32 -45
-5 0 -8 -7 -8 -15 0 -8 -4 -15 -10 -15 -5 0 -10 -6 -10 -14 0 -8 -6 -21 -14
-28 -7 -8 -17 -24 -20 -36 -4 -12 -12 -22 -17 -22 -5 0 -9 -6 -9 -14 0 -8 -6
-21 -14 -28 -7 -8 -17 -24 -20 -36 -4 -12 -11 -22 -16 -22 -4 0 -11 -11 -14
-25 -4 -14 -11 -25 -16 -25 -6 0 -10 -7 -10 -15 0 -8 -4 -15 -9 -15 -5 0 -12
-11 -15 -25 -4 -14 -11 -25 -16 -25 -6 0 -10 -6 -10 -13 0 -8 -9 -24 -20 -37
-11 -13 -20 -29 -20 -37 0 -7 -4 -13 -10 -13 -5 0 -12 -11 -16 -25 -3 -14 -10
-25 -15 -25 -5 0 -9 -5 -9 -10 0 -12 -63 -80 -74 -80 -4 0 -14 -7 -22 -15 -10
-10 -35 -15 -74 -15 -37 0 -60 -5 -63 -12 -4 -10 -7 -10 -14 -1 -10 14 -313
15 -313 1 0 -4 -110 -8 -245 -8 -157 0 -245 4 -245 10 0 6 -8 10 -18 10 -26 0
-102 77 -123 123 -5 12 -18 36 -28 52 -11 17 -20 33 -20 37 -1 4 215 7 478 7
263 0 492 3 508 7 29 8 83 55 83 73 0 6 4 11 9 11 5 0 13 10 17 22 3 12 12 28
18 35 29 32 36 43 36 52 0 5 6 16 13 23 6 7 23 36 37 63 14 28 32 57 41 65 9
8 19 25 23 38 4 12 12 22 17 22 5 0 9 6 9 14 0 8 6 21 14 28 7 8 17 24 20 36
4 12 12 22 17 22 5 0 9 5 9 12 0 6 7 20 16 29 28 31 23 135 -7 184 -14 22 -28
48 -32 58 -3 9 -10 17 -16 17 -5 0 -11 8 -13 18 -5 17 3 19 78 21 49 1 85 -2
89 -9z"/>
<path d="M3896 2771 c-3 -5 -23 -12 -43 -16 -20 -4 -45 -16 -54 -26 -10 -11
-21 -21 -26 -21 -19 -1 -33 -11 -33 -23 0 -8 -6 -20 -14 -27 -7 -8 -17 -25
-21 -38 -4 -14 -12 -28 -17 -31 -5 -3 -11 -45 -15 -92 l-6 -87 -63 0 -64 0 0
-110 0 -110 65 0 65 0 0 -300 0 -300 130 0 130 0 0 300 0 300 85 0 85 0 0 111
0 110 -85 -3 -85 -3 0 46 c0 38 5 50 30 72 24 22 39 27 84 27 63 0 66 4 66
116 0 103 -12 114 -123 114 -47 0 -88 -4 -91 -9z"/>
<path d="M4583 2413 c-13 -2 -23 -9 -23 -14 0 -5 -7 -9 -15 -9 -8 0 -15 -4
-15 -10 0 -5 -7 -10 -15 -10 -8 0 -21 -12 -29 -27 l-15 -28 -1 48 0 48 -122
-3 -123 -3 -3 -407 -2 -408 134 0 135 0 3 237 c2 178 6 237 16 241 6 2 12 9
12 16 0 16 35 44 65 52 14 3 28 10 31 15 7 12 101 11 109 -1 17 -28 25 12 25
124 0 81 -4 126 -12 134 -12 12 -106 15 -155 5z"/>
<path d="M5093 2413 c-18 -2 -33 -8 -33 -14 0 -5 -7 -9 -15 -9 -8 0 -15 -4
-15 -9 0 -5 -12 -12 -27 -16 -15 -3 -41 -22 -59 -40 -17 -19 -34 -31 -38 -28
-3 4 -6 1 -6 -5 0 -6 -6 -17 -14 -25 -21 -20 -56 -89 -56 -109 0 -9 -6 -18
-12 -20 -21 -7 -17 -265 5 -303 9 -16 17 -36 17 -42 0 -7 5 -13 10 -13 6 0 10
-6 10 -14 0 -18 92 -116 109 -116 6 0 11 -4 11 -10 0 -5 11 -12 25 -16 14 -3
25 -10 25 -14 0 -5 20 -12 45 -16 25 -3 48 -10 51 -15 7 -12 194 -12 194 0 0
4 19 11 41 14 23 3 45 10 48 15 3 5 21 13 39 17 17 3 32 10 32 13 0 4 19 28
43 52 53 56 84 117 70 139 -6 9 -32 20 -59 25 -27 6 -51 13 -54 16 -3 4 -27
10 -53 13 -39 6 -49 4 -54 -10 -10 -26 -36 -53 -50 -53 -7 0 -13 -4 -13 -10 0
-6 -33 -10 -80 -10 -47 0 -80 4 -80 10 0 6 -6 10 -12 10 -24 0 -78 60 -78 86
l0 24 280 0 280 0 0 90 c0 53 -4 90 -10 90 -5 0 -10 12 -10 28 -1 45 -49 130
-105 184 -45 42 -52 48 -68 48 -10 0 -17 5 -17 10 0 6 -9 10 -19 10 -11 0 -21
5 -23 12 -4 12 -209 21 -275 11z m230 -243 c15 -14 27 -33 27 -42 0 -10 5 -18
10 -18 6 0 10 -3 10 -7 0 -5 -70 -8 -155 -8 -85 0 -155 4 -155 8 0 19 34 65
59 81 20 13 44 16 102 14 65 -3 80 -7 102 -28z"/>
<path d="M6010 2411 c-58 -18 -70 -24 -70 -31 0 -4 -12 -11 -27 -15 -49 -12
-173 -162 -173 -210 0 -7 -6 -15 -12 -17 -18 -6 -18 -280 0 -285 6 -3 12 -10
12 -16 0 -54 118 -192 183 -213 9 -4 17 -10 17 -14 0 -4 20 -11 45 -14 24 -4
47 -11 50 -17 8 -12 180 -12 203 0 9 6 34 13 55 16 20 3 37 10 37 14 0 5 11
12 25 15 29 7 110 86 120 116 3 11 10 20 14 20 11 0 22 56 15 74 -4 9 -27 17
-60 22 -30 3 -54 10 -54 14 0 9 -78 20 -95 13 -7 -2 -16 -15 -19 -29 -4 -14
-16 -26 -31 -30 -14 -3 -25 -10 -25 -15 0 -5 -36 -9 -80 -9 -47 0 -80 4 -80
10 0 6 -5 10 -11 10 -20 0 -79 68 -79 90 0 20 4 20 280 20 l280 0 0 90 c0 50
-4 90 -9 90 -5 0 -11 23 -15 50 -4 28 -11 50 -16 50 -6 0 -10 6 -10 13 0 8 -9
24 -20 37 -11 13 -20 28 -20 34 0 7 -15 20 -32 31 -18 10 -35 21 -38 24 -11
14 -60 41 -74 41 -8 0 -16 5 -18 11 -5 14 -230 22 -268 10z m194 -221 c16 0
62 -49 70 -75 6 -19 1 -20 -149 -20 -174 0 -178 2 -120 63 32 35 39 37 107 42
40 3 75 2 76 -2 2 -5 9 -8 16 -8z"/>
<path d="M6885 2411 c-11 -4 -30 -11 -42 -16 -13 -4 -23 -11 -23 -15 0 -4 -11
-11 -25 -14 -28 -7 -111 -88 -120 -117 -4 -10 -10 -19 -15 -19 -4 0 -11 -17
-15 -37 -4 -21 -12 -41 -18 -45 -20 -12 -14 -236 6 -273 9 -16 17 -38 17 -47
0 -10 4 -18 9 -18 5 0 13 -10 17 -22 6 -20 32 -48 100 -106 14 -12 38 -25 52
-28 15 -4 33 -12 41 -18 19 -15 239 -15 249 0 4 6 18 15 31 19 14 4 32 15 40
24 9 9 13 12 10 6 -4 -5 -9 -33 -11 -62 -3 -29 -12 -59 -21 -68 -10 -9 -17
-20 -17 -25 0 -5 -13 -11 -30 -15 -16 -4 -30 -11 -30 -16 0 -5 -31 -9 -70 -9
-38 0 -70 4 -70 9 0 5 -12 12 -27 16 -31 7 -71 49 -79 83 -4 15 -14 22 -30 22
-13 0 -24 -4 -24 -10 0 -5 -13 -10 -30 -10 -16 0 -30 -4 -30 -9 0 -4 -11 -6
-24 -4 -13 3 -27 0 -30 -6 -4 -6 -18 -11 -31 -11 -12 0 -25 -6 -28 -12 -6 -18
4 -78 13 -78 4 0 11 -11 14 -25 4 -14 11 -25 16 -25 6 0 10 -5 10 -11 0 -13
67 -79 80 -79 5 0 10 -3 12 -7 6 -16 96 -53 127 -53 17 0 31 -4 31 -10 0 -6
42 -10 105 -10 58 0 105 4 105 9 0 4 20 11 43 14 47 7 107 34 120 55 4 6 13
12 20 12 7 0 23 14 37 32 14 17 30 37 37 44 7 6 15 23 19 38 3 14 10 26 15 26
4 0 11 23 15 50 4 28 11 53 15 56 5 3 9 187 9 410 l0 404 -125 0 -125 0 0 -35
c0 -38 0 -38 -45 3 -7 6 -18 12 -23 12 -6 0 -12 5 -14 12 -5 14 -212 22 -243
9z m205 -230 c0 -5 14 -12 31 -16 19 -4 33 -15 36 -26 3 -10 9 -16 14 -14 4 3
11 -11 14 -32 4 -21 12 -48 18 -61 8 -16 8 -25 1 -30 -6 -4 -13 -23 -17 -43
-6 -39 -33 -79 -53 -79 -7 0 -14 -6 -17 -12 -2 -9 -28 -13 -79 -13 -70 0 -77
2 -104 30 -17 17 -38 45 -47 64 -18 37 -23 121 -7 121 6 0 10 8 10 18 0 25 34
63 73 83 34 18 127 25 127 10z"/>
<path d="M7883 2413 c-18 -2 -33 -8 -33 -14 0 -5 -9 -9 -20 -9 -11 0 -20 -4
-20 -9 0 -5 -11 -12 -25 -15 -21 -5 -94 -72 -130 -119 -23 -30 -45 -81 -51
-118 -4 -22 -11 -42 -15 -45 -12 -7 -12 -171 0 -178 5 -3 12 -26 15 -51 4 -25
11 -45 16 -45 4 0 11 -12 14 -26 4 -15 14 -34 22 -43 45 -50 90 -91 100 -91 7
0 14 -7 18 -15 3 -8 12 -15 21 -15 8 0 15 -4 15 -9 0 -5 23 -12 50 -16 28 -4
50 -11 50 -16 0 -5 45 -9 100 -9 55 0 100 4 100 9 0 4 19 11 41 14 23 3 45 10
48 15 3 5 17 13 30 17 21 6 111 89 111 101 0 3 7 12 15 20 8 9 15 24 15 35 0
10 5 19 10 19 16 0 12 37 -5 44 -8 3 -37 8 -65 12 -27 4 -50 10 -50 14 0 10
-75 21 -93 14 -8 -3 -18 -16 -21 -29 -3 -13 -16 -27 -29 -31 -12 -4 -25 -11
-28 -16 -8 -13 -143 -12 -147 1 -2 6 -10 11 -18 11 -22 0 -84 66 -84 89 0 21
3 21 281 21 l282 0 -5 116 c-3 64 -10 119 -15 123 -6 3 -13 18 -17 34 -6 24
-26 53 -63 93 -7 7 -13 17 -13 23 0 6 -7 11 -15 11 -7 0 -18 6 -22 13 -10 15
-70 47 -88 47 -7 0 -15 5 -17 11 -4 12 -204 21 -265 12z m192 -223 c21 0 61
-42 68 -70 l6 -25 -154 3 -155 3 13 22 c6 12 25 34 41 49 24 23 39 28 95 30
36 2 68 0 69 -4 2 -5 10 -8 17 -8z"/>
<path d="M8920 2413 c-33 -10 -65 -29 -73 -40 -4 -7 -14 -13 -22 -13 -8 0 -19
-8 -24 -17 -8 -14 -10 -9 -11 25 l0 42 -125 0 -125 0 0 -410 0 -410 130 0 130
0 0 253 0 252 30 35 c27 32 36 35 92 40 59 5 65 3 93 -24 l30 -29 3 -264 3
-264 132 3 132 3 -1 270 c0 263 -8 365 -25 365 -5 0 -9 7 -9 16 0 32 -65 124
-87 124 -7 0 -13 5 -13 10 0 6 -9 10 -20 10 -11 0 -20 5 -20 11 0 6 -9 9 -20
6 -11 -3 -20 -1 -20 4 0 9 -153 11 -180 2z"/>
<path d="M9589 1897 c-61 -28 -105 -107 -95 -173 9 -66 45 -118 90 -130 14 -3
26 -10 26 -15 0 -5 25 -9 55 -9 30 0 55 4 55 9 0 5 12 12 26 15 28 7 63 42 64
63 0 6 6 13 13 16 18 6 16 129 -3 149 -8 8 -25 27 -37 42 -13 14 -32 26 -43
26 -11 0 -20 5 -20 10 0 14 -99 11 -131 -3z"/>
</g>
</svg>
